# xmcd CD database file
#
# Track frame offsets:
#        150
#        16611
#        33078
#        50737
#        77459
#        93764
#        111488
#        130076
#        147225
#        164439
#        180813
#        197082
#        213616
#        228743
#        246488
#        263795
#        281090
#        298164
#
# Disc length: 4267 seconds
#
# Revision: 0
# Processed by: cddbd v1.5.2PL0 Copyright (c) Steve Scherf et al.
# Submitted via: CUERipper 2.1.5
#
DISCID=0310a912
DTITLE=Bad Boys Blue - Super Best 1987-1993
DYEAR=1900
DGENRE=
TTITLE0=Jungle In My Heart
TTITLE1=Lonely Weekend
TTITLE2=A Train to Nowhere
TTITLE3=Hungry For Love
TTITLE4=A World Without You (Michelle)
TTITLE5=Show Me The Way
TTITLE6=Come Back And Stay
TTITLE7=Lady In Black
TTITLE8=Don't Walk Away, Suzanne
TTITLE9=How I Need You
TTITLE10=Love Is No Crime
TTITLE11=Where Are You Now
TTITLE12=What A Feeling
TTITLE13=House Of Silence
TTITLE14=Heart Of Midnight
TTITLE15=Who's That Man
TTITLE16=Baby Blue
TTITLE17=I Totally Miss You (U.S. Remix)
EXTD=
EXTT0=
EXTT1=
EXTT2=
EXTT3=
EXTT4=
EXTT5=
EXTT6=
EXTT7=
EXTT8=
EXTT9=
EXTT10=
EXTT11=
EXTT12=
EXTT13=
EXTT14=
EXTT15=
EXTT16=
EXTT17=
PLAYORDER=
